<svg width="139" height="44" viewBox="0 0 139 44" fill="none" xmlns="http://www.w3.org/2000/svg">
<g clip-path="url(#clip0_0_717)">
<rect x="68" y="18" width="71" height="26" rx="13" fill="#242D44"/>
<circle cx="81" cy="31" r="8" fill="#D03F2F"/>
<path d="M100.048 10V9.004C100.828 8.408 101.51 7.868 102.094 7.384C102.678 6.896 103.176 6.454 103.588 6.058C104 5.662 104.334 5.302 104.59 4.978C104.846 4.65 105.032 4.35 105.148 4.078C105.268 3.802 105.328 3.542 105.328 3.298C105.328 2.994 105.256 2.718 105.112 2.47C104.968 2.218 104.772 2.018 104.524 1.87C104.28 1.722 104.004 1.648 103.696 1.648C103.4 1.648 103.126 1.724 102.874 1.876C102.626 2.024 102.408 2.244 102.22 2.536C102.032 2.828 101.876 3.186 101.752 3.61L100.12 2.848C100.24 2.396 100.412 1.99 100.636 1.63C100.864 1.266 101.136 0.956 101.452 0.7C101.772 0.444 102.13 0.247999 102.526 0.111999C102.922 -0.0240004 103.35 -0.0920002 103.81 -0.0920002C104.51 -0.0920002 105.132 0.0539997 105.676 0.345999C106.22 0.634 106.646 1.028 106.954 1.528C107.266 2.028 107.422 2.598 107.422 3.238C107.422 3.558 107.378 3.872 107.29 4.18C107.202 4.488 107.064 4.8 106.876 5.116C106.688 5.428 106.444 5.75 106.144 6.082C105.844 6.41 105.482 6.756 105.058 7.12C104.638 7.48 104.148 7.864 103.588 8.272H107.602V10H100.048Z" fill="white"/>
<path d="M80.262 10V2.008H78.786V0.0999994H82.206V10H80.262Z" fill="white"/>
<path d="M125.797 10.192C125.205 10.192 124.663 10.09 124.171 9.886C123.679 9.682 123.263 9.396 122.923 9.028C122.583 8.66 122.345 8.226 122.209 7.726L124.009 6.874C124.037 7.194 124.125 7.478 124.273 7.726C124.425 7.97 124.631 8.162 124.891 8.302C125.155 8.438 125.459 8.506 125.803 8.506C126.283 8.506 126.665 8.374 126.949 8.11C127.237 7.846 127.381 7.496 127.381 7.06C127.381 6.748 127.311 6.47 127.171 6.226C127.031 5.978 126.841 5.784 126.601 5.644C126.365 5.5 126.101 5.428 125.809 5.428C125.641 5.428 125.497 5.452 125.377 5.5V4.204H125.827C126.087 4.204 126.321 4.14 126.529 4.012C126.741 3.88 126.909 3.706 127.033 3.49C127.161 3.274 127.225 3.042 127.225 2.794C127.225 2.55 127.161 2.33 127.033 2.134C126.909 1.938 126.741 1.782 126.529 1.666C126.317 1.55 126.079 1.492 125.815 1.492C125.551 1.492 125.305 1.552 125.077 1.672C124.853 1.792 124.667 1.956 124.519 2.164C124.371 2.372 124.277 2.612 124.237 2.884L122.695 2.164C122.807 1.716 123.013 1.324 123.313 0.987999C123.613 0.647999 123.981 0.385999 124.417 0.201999C124.857 0.0139995 125.335 -0.0800004 125.851 -0.0800004C126.455 -0.0800004 126.993 0.0439997 127.465 0.292C127.941 0.539999 128.315 0.877999 128.587 1.306C128.859 1.73 128.995 2.214 128.995 2.758C128.995 3.038 128.953 3.3 128.869 3.544C128.789 3.788 128.673 4.01 128.521 4.21C128.369 4.41 128.185 4.582 127.969 4.726C128.249 4.874 128.491 5.062 128.695 5.29C128.899 5.518 129.055 5.78 129.163 6.076C129.271 6.368 129.325 6.694 129.325 7.054C129.325 7.654 129.177 8.192 128.881 8.668C128.585 9.14 128.171 9.512 127.639 9.784C127.111 10.056 126.497 10.192 125.797 10.192Z" fill="white"/>
</g>
<path d="M3.23963 27.652H1.34963V26.08H6.91763V27.652H5.03363V34H3.23963V27.652ZM13.4048 30.814H10.6688V34H8.88081V26.08H10.6688V29.248H13.4048V26.08H15.1868V34H13.4048V30.814ZM17.5449 26.08H22.6029V27.652H19.3329V29.266H22.5729V30.79H19.3329V32.428H22.6029V34H17.5449V26.08ZM33.391 26.08V34H31.603V29.338L31.681 28.012L31.375 29.53L30.043 33.364H28.285L26.959 29.53L26.659 28.012L26.737 29.338V34H24.943V26.08H27.463L29.059 31.366L29.167 31.996L29.275 31.366L30.871 26.08H33.391ZM35.8222 26.08H40.8802V27.652H37.6102V29.266H40.8502V30.79H37.6102V32.428H40.8802V34H35.8222V26.08Z" fill="white"/>
<defs>
<clipPath id="clip0_0_717">
<rect width="71" height="44" fill="white" transform="translate(68)"/>
</clipPath>
</defs>
</svg>
